<?xml version="1.0" encoding="UTF-8"?>
<svg xmlns="http://www.w3.org/2000/svg" width="512" height="512" viewBox="0 0 512 512"><g><path d="M476,80H384V24a8,8,0,0,0-8-8H312a8,8,0,0,0-8,8V80H285.54L263.49,21.19a8,8,0,0,0-14.98,0L226.46,80H36A28.031,28.031,0,0,0,8,108V388a28.031,28.031,0,0,0,28,28H197.39l-11.42,40H144a8,8,0,0,0-8,8v24a8,8,0,0,0,8,8H368a8,8,0,0,0,8-8V464a8,8,0,0,0-8-8H326.03l-11.42-40H476a28.031,28.031,0,0,0,28-28V108A28.031,28.031,0,0,0,476,80ZM320,32h48v8H344a8,8,0,0,0,0,16h24V80H320Zm0,64h48v24H344a8,8,0,0,0,0,16h24v24H344a8,8,0,0,0,0,16h24v24H344a8,8,0,0,0,0,16h24v24H344a8,8,0,0,0,0,16h24v24H344a8,8,0,0,0,0,16h24v24H344a8,8,0,0,0,0,16h24v16H320Zm-32,0h16V352H288ZM256,46.78,265.46,72H246.54ZM240,89.45l.54-1.45h30.92l.54,1.45V96H240ZM240,112h32V352h-8V168a8,8,0,0,0-16,0V352h-8ZM24,108A12.01,12.01,0,0,1,36,96H224V352H208V248a8,8,0,0,0,8-8V216a7.99,7.99,0,0,0-6.95-7.92l6.89-55.09A8,8,0,0,0,208,144H144a8,8,0,0,0-7.94,8.99l6.89,55.09A7.99,7.99,0,0,0,136,216v24a8,8,0,0,0,8,8V352H24ZM160,296V248h32v48Zm32,16v40H160V312Zm-40-80v-8h48v8Zm1.06-72h45.88l-6,48H159.06ZM360,472v8H152v-8ZM202.61,456l11.42-40h83.94l11.42,40ZM488,388a12.01,12.01,0,0,1-12,12H36a12.01,12.01,0,0,1-12-12V368H488Zm0-36H384V96h92a12.01,12.01,0,0,1,12,12Z"/><path d="M104,376H48a8,8,0,0,0,0,16h56a8,8,0,0,0,0-16Z"/><path d="M136,376h-8a8,8,0,0,0,0,16h8a8,8,0,0,0,0-16Z"/><path d="M256,128a8,8,0,0,0-8,8v8a8,8,0,0,0,16,0v-8A8,8,0,0,0,256,128Z"/></g></svg>
