<?xml version="1.0" encoding="UTF-8"?>
<svg xmlns="http://www.w3.org/2000/svg" width="512" height="512" viewBox="0 0 512 512"><g><path d="M496,40H328V16a8,8,0,0,0-8-8H192a8,8,0,0,0-8,8V40H16a8,8,0,0,0-8,8V352a8,8,0,0,0,8,8H91.61L31.71,492.71A8,8,0,0,0,39,504H87a7.994,7.994,0,0,0,7.29-4.71L124.67,432H386.33l30.38,67.29A7.994,7.994,0,0,0,424,504h48a8,8,0,0,0,7.29-11.29L419.39,360H496a8,8,0,0,0,8-8V48A8,8,0,0,0,496,40ZM200,24H312V40H200ZM38.91,344l97.55-121.94L225.88,344ZM81.83,488H51.39l57.78-128h30.44Zm50.06-72,25.28-56H353.83l25.28,56Zm327.72,72H429.17L371.39,360h30.44ZM488,344H245.72l-40.49-55.21,141.04-176.3L488,299.21Zm0-71.25L352.81,94.64a8,8,0,0,0-12.62-.16L195.43,275.42l-52.24-71.24a8.008,8.008,0,0,0-12.7-.26L24,337.03V56H488Z"/><path d="M135,184a56,56,0,1,0-56-56A56.064,56.064,0,0,0,135,184Zm0-96a40,40,0,1,1-40,40A40.045,40.045,0,0,1,135,88Z"/></g></svg>
