<?xml version="1.0" encoding="UTF-8"?>
<svg xmlns="http://www.w3.org/2000/svg" id="Line_stroke_Cut_Ex" data-name="Line stroke Cut Ex" width="512" height="512" viewBox="0 0 512 512"><g><path d="M420.122,276l23.591-40.861,8-13.857a7.983,7.983,0,0,0,.909-2.4l10.144-49.57a8,8,0,0,0-3.838-8.531l-13.856-8a8,8,0,0,0-9.308.943L397.908,187.3a7.971,7.971,0,0,0-1.621,1.985l-8,13.857L350.839,268l13.857,8,33.448-57.934,27.712,16L406.265,268ZM409.5,198.406l32.57-28.882,3.87,2.234-8.727,42.648-3.352,5.805-27.712-16Z"/><rect x="446" y="138.392" width="24" height="16" transform="translate(102.218 469.832) rotate(-59.999)"/><path d="M203.8,241.969l7.059,31.766,15.619-3.47L223.306,256h65.388l-3.17,14.265,15.619,3.47,7.059-31.766a104.027,104.027,0,0,0,8.47-174.447l-9.344,12.989A88.026,88.026,0,0,1,297.4,229.673a8,8,0,0,0-4.04,5.321L292.249,240H264V163.314L283.314,144H312V128H280a8,8,0,0,0-5.657,2.343L256,148.687l-18.343-18.344A8,8,0,0,0,232,128H200v16h28.686L248,163.314V240H219.751l-1.112-5.006a8,8,0,0,0-4.04-5.321A88.023,88.023,0,0,1,291.222,71.33l6.41-14.66a104.022,104.022,0,0,0-93.834,185.3Z"/><path d="M494.784,355.76l-15-24-13.568,8.48,7.35,11.76H308l-36-48H443.566l12.65,20.24,13.568-8.48-15-24A8,8,0,0,0,448,288H64a8,8,0,0,0-6.784,3.76l-40,64A8,8,0,0,0,24,368H56v64H72V368H208a8,8,0,0,0,6.4-3.2L248,320V480H72V448H56v40a8,8,0,0,0,8,8H448a8,8,0,0,0,8-8V368h32a8,8,0,0,0,6.784-12.24ZM204,352H38.434l30-48H240ZM440,480H264V320l33.6,44.8A8,8,0,0,0,304,368H440Z"/><path d="M42.692,215.88l36.885,32.707L95.4,276l13.857-8L96.785,246.393l27.713-16L150.829,276l13.857-8L135,216.587l-9.883-48.3a8,8,0,0,0-4.292-5.567l-51.713-25.57a8,8,0,0,0-7.546.243l-13.856,8a8,8,0,0,0-3.984,6.414L40.017,209.38A8,8,0,0,0,42.692,215.88Zm75.74-.461L86.85,233.652,56.235,206.505l2.689-41.69L75.713,193.9l13.856-8L72.781,156.816l37.448,18.516Z"/><path d="M65.083,74.269l15.189,8.769L71.5,98.229a8,8,0,0,0,2.929,10.927l41.569,24a8,8,0,0,0,10.928-2.927l24-41.57A8,8,0,0,0,148,77.73l-15.19-8.769,8.77-15.19a8,8,0,0,0-2.928-10.927l-41.569-24a8,8,0,0,0-10.928,2.927l-24,41.57A8,8,0,0,0,65.083,74.269Zm67.989,13.319-16,27.713-27.713-16,4.77-8.262,12.523,7.231a8,8,0,0,0,10.928-2.928l7.23-12.523ZM96.011,36.7l27.713,16-16,27.713-27.713-16Z"/><path d="M380.144,89.072l-8,13.856,27.712,16,8-13.856-6.928-4,28-48.5,13.857,8-8,13.857,13.856,8,12-20.785a8,8,0,0,0-2.928-10.927l-55.426-32a8,8,0,0,0-10.928,2.927l-12,20.785,13.856,8,8-13.857,13.857,8-28,48.5Z"/></g></svg>
