<?xml version="1.0" encoding="UTF-8"?>
<svg xmlns="http://www.w3.org/2000/svg" id="Solid" width="512" height="512" viewBox="0 0 512 512"><g><path d="M409.5,198.406l32.57-28.882,3.87,2.234-8.727,42.648-3.352,5.805-27.712-16Zm-11.351,19.66,27.712,16L394.718,288h-36.95ZM168,152a88,88,0,1,1,129.4,77.674,8,8,0,0,0-4.04,5.32L292.249,240H264V163.314L283.314,144H312V128H280a8,8,0,0,0-5.657,2.343L256,148.687l-18.343-18.344A8,8,0,0,0,232,128H200v16h28.686L248,163.314V240H219.751l-1.112-5.006a8,8,0,0,0-4.04-5.321A87.926,87.926,0,0,1,168,152Zm55.307,104h65.387l-7.111,32H230.417ZM58.924,164.815,75.713,193.9l13.856-8L72.781,156.816l37.448,18.516,8.2,40.087L86.85,233.652,56.235,206.505Zm37.861,81.577,27.713-16L157.757,288h-36.95ZM68.434,304H240l-36,48H38.434ZM72,368H208a8,8,0,0,0,6.4-3.2L248,320V480H82a10,10,0,0,1-10-10ZM430,480H264V320l33.6,44.8A8,8,0,0,0,304,368H440V470A10,10,0,0,1,430,480ZM308,352l-36-48H443.566l30,48Z"/><path d="M133.072,101.943l-16,27.713-27.713-16,4.77-8.261,12.523,7.23A8,8,0,0,0,117.58,109.7l7.23-12.522ZM96.011,51.056l27.713,16-16,27.713-27.713-16Z"/><path d="M380.144,103.428l-8,13.855,27.712,16,8-13.855-6.928-4,28-48.5,13.857,8-8,13.856,13.856,8,12-20.784a8,8,0,0,0-2.928-10.928l-55.426-32A8,8,0,0,0,391.359,36l-12,20.784,13.856,8,8-13.856,13.857,8-28,48.5Z"/></g></svg>
